<svg width="333" height="120" viewBox="0 0 333 120" fill="none" xmlns="http://www.w3.org/2000/svg">
<path d="M43.3021 0.872559H37.4375C36.7396 0.872559 36.2083 1.24756 35.8906 1.99235L22.8229 35.0028C22.8229 35.1121 22.7708 35.1121 22.7708 35.1121L22.5573 35.1642C22.5573 35.1642 22.5573 35.1121 22.5052 35.0028L9.22395 1.99235C9.01041 1.24756 8.47916 0.872559 7.72916 0.872559H1.96874C1.17187 0.872559 0.906242 1.40902 0.84895 1.61735C0.744783 1.99235 0.796867 2.41943 1.01041 2.95068L15.9427 39.8569C16.1042 40.1799 16.2083 40.4455 16.3177 40.659C17.1146 43.4819 19.7292 45.4559 22.6615 45.4559C23.9948 45.4559 25.276 45.0288 26.3437 44.284C26.6615 44.1226 26.9271 43.9663 27.1406 43.7528C27.9427 43.0549 28.6875 41.7788 29.4896 39.8569L44.3125 2.95068C44.526 2.41943 44.5833 1.99235 44.4739 1.61735C44.3698 1.35173 44.1042 0.872559 43.3021 0.872559Z" fill="black"/>
<path d="M87.7768 35.8569H69.006C67.8862 35.8569 66.9799 35.6954 66.2299 35.4819C65.5372 35.2163 65.0581 34.8465 64.631 34.31C64.2039 33.7267 63.8862 32.9246 63.7247 31.909C63.6726 31.6434 63.6726 31.2736 63.6206 31.0027C63.6206 31.0027 63.6726 27.1642 63.7247 27.1642H87.5633C87.9904 27.1642 89.0581 26.9506 89.0581 25.2996V21.0861C89.0581 19.4298 87.9904 19.2736 87.5633 19.2736L60.0476 19.3256C58.5008 19.4298 57.1674 20.2319 56.4174 21.5652C56.1518 21.9923 55.9383 22.4194 55.8341 22.8986L55.7247 29.6173V29.8829C55.7768 32.3934 56.0476 34.5236 56.4174 36.284C56.8966 38.4194 57.6987 40.1798 58.7143 41.5131C59.7768 42.8986 61.1674 43.8569 62.8706 44.4454C64.5268 45.0861 66.4956 45.3517 68.8445 45.3517H87.7768C88.256 45.3517 89.3237 45.1902 89.3237 43.5392V37.6694C89.3237 36.0184 88.256 35.8569 87.7768 35.8569ZM87.8289 1.35168H57.1674C56.7404 1.35168 55.7247 1.56523 55.7247 3.27356V7.43502C55.7247 9.08606 56.7404 9.24752 57.1674 9.24752L87.8289 9.2996C88.256 9.2996 89.3237 9.08606 89.3237 7.43502V3.22148C89.3237 1.56523 88.256 1.35168 87.8289 1.35168Z" fill="black"/>
<path d="M138.281 1.46106H133.531C133.052 1.46106 132.041 1.61731 132.041 3.32564V35.3777C132.041 35.4298 132.041 35.4298 132.041 35.4819H131.77C131.718 35.4819 131.666 35.4819 131.614 35.3256L114.76 5.35168C114.333 4.55481 113.958 3.91418 113.588 3.43502C113.213 2.89856 112.838 2.47148 112.468 2.20585C112.041 1.88814 111.562 1.6746 110.973 1.56523C110.442 1.51314 109.802 1.46106 109.109 1.46106H105.109C103.562 1.46106 102.39 1.99231 101.64 2.95064C100.895 3.96627 100.52 5.72669 100.52 8.34127V43.5913C100.52 45.2423 101.588 45.4559 102.067 45.4559H106.812C107.296 45.4559 108.307 45.2423 108.307 43.5913V11.5392C108.307 11.4871 108.307 11.435 108.307 11.435H108.572C108.572 11.435 108.63 11.435 108.734 11.5913L125.64 41.5652C126.067 42.4194 126.494 43.0548 126.864 43.5392C127.239 44.0704 127.614 44.4454 128.041 44.7111C128.468 45.0288 128.947 45.1902 129.479 45.2996C129.958 45.4038 130.546 45.4559 131.291 45.4559H135.187C136.734 45.4559 137.906 44.9246 138.65 43.909C139.4 42.9506 139.77 41.1902 139.77 38.5756V3.32564C139.77 1.61731 138.708 1.46106 138.281 1.46106Z" fill="black"/>
<path d="M187.823 1.46106H152.516C152.036 1.46106 150.969 1.61731 150.969 3.27356V7.43502C150.969 9.19023 152.036 9.35168 152.516 9.35168H166.224V43.5913C166.224 45.2423 167.286 45.4038 167.713 45.4038H172.62C173.099 45.4038 174.114 45.2423 174.114 43.5913V9.35168H187.823C188.302 9.35168 189.364 9.19023 189.364 7.43502V3.27356C189.364 1.61731 188.302 1.46106 187.823 1.46106Z" fill="black"/>
<path d="M237.418 1.46106H232.512C232.027 1.46106 231.017 1.61731 231.017 3.27356V29.5652C231.017 31.1642 230.907 32.5496 230.751 33.5652C230.59 34.5756 230.267 35.3777 229.897 35.9663C229.47 36.4975 228.991 36.8725 228.298 37.1381C227.605 37.3517 226.642 37.5131 225.522 37.5131H214.001C212.881 37.5131 211.923 37.3517 211.23 37.1381C210.538 36.8725 210.058 36.4975 209.631 35.9663C209.256 35.3777 208.939 34.5756 208.725 33.5652C208.564 32.5496 208.46 31.1642 208.46 29.5652V3.27356C208.46 1.61731 207.444 1.46106 206.965 1.46106H202.111C201.631 1.46106 200.564 1.61731 200.564 3.27356V28.7111C200.564 31.6954 200.777 34.2579 201.256 36.3361C201.736 38.4715 202.538 40.2319 203.605 41.5652C204.616 42.9506 206.058 43.909 207.71 44.5496C209.366 45.1381 211.392 45.4038 213.736 45.4038H225.736C228.085 45.4038 230.111 45.1381 231.762 44.5496C233.47 43.909 234.855 42.9506 235.923 41.5652C236.991 40.2319 237.736 38.4715 238.215 36.3361C238.694 34.2579 238.907 31.6954 238.907 28.7111V3.27356C238.907 1.61731 237.897 1.46106 237.418 1.46106Z" fill="black"/>
<path d="M286.475 14.2059C286.475 14.2579 286.475 14.31 286.475 14.3673C286.475 14.4194 286.475 14.4715 286.475 14.5236V14.2059ZM287.491 43.1121L278.158 27.1121C280.772 26.7892 282.798 25.6694 284.132 23.8569C285.626 21.6694 286.423 18.5236 286.475 14.3673C286.423 10.2059 285.626 7.06002 284.132 4.87252C282.533 2.58085 279.866 1.46106 276.236 1.46106H251.652C251.173 1.46106 250.105 1.61731 250.105 3.32564V7.53918C250.105 9.19023 251.173 9.35168 251.652 9.35168H274.85C276.236 9.35168 277.147 9.72669 277.678 10.5236C278.267 11.3256 278.533 12.6069 278.533 14.3673C278.533 16.1277 278.267 17.4038 277.678 18.2059C277.147 19.0079 276.236 19.3777 274.85 19.3777H251.652C251.173 19.3777 250.105 19.5392 250.105 21.1902V43.5913C250.105 45.2423 251.173 45.4559 251.652 45.4559H256.507C256.986 45.4559 258.001 45.2423 258.001 43.5913V27.2736H269.251L278.902 44.3881C279.116 44.7111 279.277 44.9767 279.491 45.1381C279.757 45.3517 280.132 45.4559 280.611 45.4559H286.475C287.116 45.4559 287.595 45.0288 287.704 44.3881C287.757 43.8569 287.704 43.4298 287.491 43.1121Z" fill="black"/>
<path d="M331.006 35.8569H312.235C311.115 35.8569 310.209 35.6954 309.459 35.4819C308.766 35.2163 308.287 34.8465 307.86 34.31C307.433 33.7267 307.115 32.9246 306.954 31.909C306.902 31.6434 306.902 31.2736 306.85 31.0027C306.85 31.0027 306.902 27.1642 306.954 27.1642H330.792C331.219 27.1642 332.287 26.9506 332.287 25.2996V21.0861C332.287 19.4298 331.219 19.2736 330.792 19.2736L303.277 19.3256C301.73 19.4298 300.397 20.2319 299.647 21.5652C299.381 21.9923 299.167 22.4194 299.063 22.8986L298.954 29.6173V29.8829C299.006 32.3934 299.277 34.5236 299.647 36.284C300.126 38.4194 300.928 40.1798 301.943 41.5131C303.006 42.8986 304.397 43.8569 306.1 44.4454C307.756 45.0861 309.725 45.3517 312.074 45.3517H331.006C331.485 45.3517 332.553 45.1902 332.553 43.5392V37.6694C332.553 36.0184 331.485 35.8569 331.006 35.8569ZM331.058 1.35168H300.397C299.969 1.35168 298.954 1.56523 298.954 3.27356V7.43502C298.954 9.08606 299.969 9.24752 300.397 9.24752L331.058 9.2996C331.485 9.2996 332.553 9.08606 332.553 7.43502V3.22148C332.553 1.56523 331.485 1.35168 331.058 1.35168Z" fill="black"/>
<path d="M108.464 75.4611H73.1562C72.6771 75.4611 71.6094 75.6173 71.6094 77.2736V81.435C71.6094 83.1902 72.6771 83.3517 73.1562 83.3517H86.8646V117.591C86.8646 119.242 87.9271 119.404 88.3542 119.404H93.2604C93.7396 119.404 94.7552 119.242 94.7552 117.591V83.3517H108.464C108.943 83.3517 110.005 83.1902 110.005 81.435V77.2736C110.005 75.6173 108.943 75.4611 108.464 75.4611Z" fill="black"/>
<path d="M149.788 80.4194C149.684 80.1538 149.574 79.8309 149.47 79.6174C148.616 76.8465 146.059 74.8726 143.126 74.8726C141.793 74.8726 140.512 75.2476 139.444 75.9924C139.126 76.1538 138.855 76.3673 138.642 76.5288C137.845 77.2215 137.043 78.4976 136.298 80.4194L121.418 117.378C121.257 117.857 121.204 118.336 121.314 118.659C121.366 118.977 121.632 119.456 122.486 119.456H128.35C129.043 119.456 129.579 119.029 129.845 118.336L132.887 110.711H144.564C145.152 110.711 145.684 110.445 145.949 109.966C146.272 109.539 146.324 108.951 146.163 108.419L144.246 103.669C143.975 103.034 143.392 102.607 142.699 102.607H136.085L142.913 85.3257C142.965 85.2215 143.017 85.1642 143.017 85.1642H143.23C143.23 85.1642 143.23 85.1642 143.283 85.2736L156.512 118.284C156.777 119.029 157.309 119.456 158.059 119.456H163.762C164.616 119.456 164.829 118.925 164.934 118.659C165.043 118.336 164.991 117.857 164.777 117.378L149.788 80.4194Z" fill="black"/>
<path d="M213.999 75.4611H209.249C208.77 75.4611 207.76 75.6173 207.76 77.3256V109.378C207.76 109.43 207.76 109.43 207.76 109.482H207.489C207.437 109.482 207.385 109.482 207.333 109.326L190.479 79.3517C190.051 78.5548 189.676 77.9142 189.307 77.435C188.932 76.8986 188.557 76.4715 188.187 76.2059C187.76 75.8881 187.281 75.6746 186.692 75.5652C186.161 75.5131 185.52 75.4611 184.828 75.4611H180.828C179.281 75.4611 178.109 75.9923 177.359 76.9506C176.614 77.9663 176.239 79.7267 176.239 82.3413V117.591C176.239 119.242 177.307 119.456 177.786 119.456H182.531C183.015 119.456 184.025 119.242 184.025 117.591V85.5392C184.025 85.4871 184.025 85.435 184.025 85.435H184.291C184.291 85.435 184.348 85.435 184.453 85.5913L201.359 115.565C201.786 116.419 202.213 117.055 202.583 117.539C202.958 118.07 203.333 118.445 203.76 118.711C204.187 119.029 204.666 119.19 205.197 119.3C205.676 119.404 206.265 119.456 207.01 119.456H210.906C212.453 119.456 213.624 118.925 214.369 117.909C215.119 116.951 215.489 115.19 215.489 112.576V77.3256C215.489 75.6173 214.426 75.4611 213.999 75.4611Z" fill="black"/>
<path d="M252.234 101.112C251.166 99.3517 250.099 97.9142 249.031 96.8986C249.354 96.4715 249.672 96.0444 250.047 95.5131C250.474 94.8204 250.953 94.0184 251.484 93.1121L260.286 77.6486C260.448 77.2736 260.5 76.8465 260.448 76.3673C260.286 75.7788 259.859 75.4611 259.219 75.4611H253.937C253.354 75.4611 252.979 75.5652 252.765 75.7788C252.552 75.9402 252.338 76.1538 252.182 76.5288L244.125 90.7631C243.807 91.2996 243.489 91.7267 243.219 92.0965C242.953 92.4194 242.635 92.685 242.37 92.8465C242.047 93.0079 241.672 93.1121 241.245 93.1642C240.823 93.2163 240.234 93.2736 239.541 93.2736H234.635V77.3256C234.635 75.6173 233.567 75.4611 233.14 75.4611H228.234C227.807 75.4611 226.687 75.6173 226.687 77.3256V117.591C226.687 119.242 227.807 119.456 228.234 119.456H233.14C233.567 119.456 234.635 119.242 234.635 117.591V101.164H240.021C241.302 101.164 242.26 101.326 242.901 101.701C243.489 102.018 244.073 102.711 244.661 103.779L252.979 118.388C253.14 118.711 253.354 118.977 253.567 119.138C253.781 119.352 254.151 119.456 254.687 119.456H260.448C261.192 119.456 261.62 119.029 261.672 118.336C261.724 117.805 261.672 117.378 261.458 117.112L252.234 101.112Z" fill="black"/>
</svg>
