<svg xmlns="http://www.w3.org/2000/svg" xmlns:xlink="http://www.w3.org/1999/xlink" width="500" zoomAndPan="magnify" viewBox="0 0 375 374.999991" height="500" preserveAspectRatio="xMidYMid meet" version="1.0"><defs><g/></defs><g fill="#000000" fill-opacity="1"><g transform="translate(58.898438, 175.052845)"><g><path d="M 35.078125 -33.398438 L 30.679688 -33.398438 C 30.15625 -33.398438 29.757812 -33.117188 29.519531 -32.558594 L 19.71875 -7.800781 C 19.71875 -7.71875 19.679688 -7.71875 19.679688 -7.71875 L 19.519531 -7.679688 C 19.519531 -7.679688 19.519531 -7.71875 19.480469 -7.800781 L 9.519531 -32.558594 C 9.359375 -33.117188 8.960938 -33.398438 8.398438 -33.398438 L 4.078125 -33.398438 C 3.480469 -33.398438 3.28125 -32.996094 3.238281 -32.839844 C 3.160156 -32.558594 3.199219 -32.238281 3.359375 -31.839844 L 14.558594 -4.160156 C 14.679688 -3.917969 14.757812 -3.71875 14.839844 -3.558594 C 15.4375 -1.441406 17.398438 0.0390625 19.597656 0.0390625 C 20.597656 0.0390625 21.558594 -0.28125 22.359375 -0.839844 C 22.597656 -0.960938 22.796875 -1.078125 22.957031 -1.238281 C 23.558594 -1.761719 24.117188 -2.71875 24.71875 -4.160156 L 35.835938 -31.839844 C 35.996094 -32.238281 36.039062 -32.558594 35.957031 -32.839844 C 35.878906 -33.039062 35.679688 -33.398438 35.078125 -33.398438 Z M 35.078125 -33.398438 "/></g></g></g><g fill="#000000" fill-opacity="1"><g transform="translate(100.094339, 175.052845)"><g><path d="M 27.238281 -7.160156 L 13.160156 -7.160156 C 12.320312 -7.160156 11.640625 -7.28125 11.078125 -7.441406 C 10.558594 -7.640625 10.199219 -7.917969 9.878906 -8.320312 C 9.558594 -8.757812 9.320312 -9.359375 9.199219 -10.121094 C 9.160156 -10.320312 9.160156 -10.597656 9.121094 -10.800781 C 9.121094 -10.800781 9.160156 -13.679688 9.199219 -13.679688 L 27.078125 -13.679688 C 27.398438 -13.679688 28.199219 -13.839844 28.199219 -15.078125 L 28.199219 -18.238281 C 28.199219 -19.480469 27.398438 -19.597656 27.078125 -19.597656 L 6.441406 -19.558594 C 5.28125 -19.480469 4.28125 -18.878906 3.71875 -17.878906 C 3.519531 -17.558594 3.359375 -17.238281 3.28125 -16.878906 L 3.199219 -11.839844 L 3.199219 -11.640625 C 3.238281 -9.757812 3.441406 -8.160156 3.71875 -6.839844 C 4.078125 -5.238281 4.679688 -3.917969 5.441406 -2.917969 C 6.238281 -1.878906 7.28125 -1.160156 8.558594 -0.71875 C 9.800781 -0.238281 11.277344 -0.0390625 13.039062 -0.0390625 L 27.238281 -0.0390625 C 27.597656 -0.0390625 28.398438 -0.160156 28.398438 -1.398438 L 28.398438 -5.800781 C 28.398438 -7.039062 27.597656 -7.160156 27.238281 -7.160156 Z M 27.277344 -33.039062 L 4.28125 -33.039062 C 3.960938 -33.039062 3.199219 -32.878906 3.199219 -31.597656 L 3.199219 -28.476562 C 3.199219 -27.238281 3.960938 -27.117188 4.28125 -27.117188 L 27.277344 -27.078125 C 27.597656 -27.078125 28.398438 -27.238281 28.398438 -28.476562 L 28.398438 -31.636719 C 28.398438 -32.878906 27.597656 -33.039062 27.277344 -33.039062 Z M 27.277344 -33.039062 "/></g></g></g><g fill="#000000" fill-opacity="1"><g transform="translate(133.690997, 175.052845)"><g><path d="M 31.519531 -32.957031 L 27.957031 -32.957031 C 27.597656 -32.957031 26.839844 -32.839844 26.839844 -31.558594 L 26.839844 -7.519531 C 26.839844 -7.480469 26.839844 -7.480469 26.839844 -7.441406 L 26.636719 -7.441406 C 26.597656 -7.441406 26.558594 -7.441406 26.519531 -7.558594 L 13.878906 -30.039062 C 13.558594 -30.636719 13.277344 -31.117188 13 -31.476562 C 12.71875 -31.878906 12.4375 -32.199219 12.160156 -32.398438 C 11.839844 -32.636719 11.480469 -32.796875 11.039062 -32.878906 C 10.640625 -32.917969 10.160156 -32.957031 9.640625 -32.957031 L 6.640625 -32.957031 C 5.480469 -32.957031 4.601562 -32.558594 4.039062 -31.839844 C 3.480469 -31.078125 3.199219 -29.757812 3.199219 -27.796875 L 3.199219 -1.359375 C 3.199219 -0.121094 4 0.0390625 4.359375 0.0390625 L 7.917969 0.0390625 C 8.28125 0.0390625 9.039062 -0.121094 9.039062 -1.359375 L 9.039062 -25.398438 C 9.039062 -25.4375 9.039062 -25.476562 9.039062 -25.476562 L 9.238281 -25.476562 C 9.238281 -25.476562 9.28125 -25.476562 9.359375 -25.359375 L 22.039062 -2.878906 C 22.359375 -2.238281 22.679688 -1.761719 22.957031 -1.398438 C 23.238281 -1 23.519531 -0.71875 23.839844 -0.519531 C 24.160156 -0.28125 24.519531 -0.160156 24.917969 -0.078125 C 25.277344 0 25.71875 0.0390625 26.277344 0.0390625 L 29.199219 0.0390625 C 30.359375 0.0390625 31.238281 -0.359375 31.796875 -1.121094 C 32.359375 -1.839844 32.636719 -3.160156 32.636719 -5.121094 L 32.636719 -31.558594 C 32.636719 -32.839844 31.839844 -32.957031 31.519531 -32.957031 Z M 31.519531 -32.957031 "/></g></g></g><g fill="#000000" fill-opacity="1"><g transform="translate(171.527233, 175.052845)"><g><path d="M 30.839844 -32.957031 L 4.359375 -32.957031 C 4 -32.957031 3.199219 -32.839844 3.199219 -31.597656 L 3.199219 -28.476562 C 3.199219 -27.160156 4 -27.039062 4.359375 -27.039062 L 14.640625 -27.039062 L 14.640625 -1.359375 C 14.640625 -0.121094 15.4375 0 15.757812 0 L 19.4375 0 C 19.796875 0 20.558594 -0.121094 20.558594 -1.359375 L 20.558594 -27.039062 L 30.839844 -27.039062 C 31.199219 -27.039062 31.996094 -27.160156 31.996094 -28.476562 L 31.996094 -31.597656 C 31.996094 -32.839844 31.199219 -32.957031 30.839844 -32.957031 Z M 30.839844 -32.957031 "/></g></g></g><g fill="#000000" fill-opacity="1"><g transform="translate(208.72354, 175.052845)"><g><path d="M 30.839844 -32.957031 L 27.160156 -32.957031 C 26.796875 -32.957031 26.039062 -32.839844 26.039062 -31.597656 L 26.039062 -11.878906 C 26.039062 -10.679688 25.957031 -9.640625 25.839844 -8.878906 C 25.71875 -8.121094 25.476562 -7.519531 25.199219 -7.078125 C 24.878906 -6.679688 24.519531 -6.398438 24 -6.199219 C 23.480469 -6.039062 22.757812 -5.917969 21.917969 -5.917969 L 13.277344 -5.917969 C 12.4375 -5.917969 11.71875 -6.039062 11.199219 -6.199219 C 10.679688 -6.398438 10.320312 -6.679688 10 -7.078125 C 9.71875 -7.519531 9.480469 -8.121094 9.320312 -8.878906 C 9.199219 -9.640625 9.121094 -10.679688 9.121094 -11.878906 L 9.121094 -31.597656 C 9.121094 -32.839844 8.359375 -32.957031 8 -32.957031 L 4.359375 -32.957031 C 4 -32.957031 3.199219 -32.839844 3.199219 -31.597656 L 3.199219 -12.519531 C 3.199219 -10.28125 3.359375 -8.359375 3.71875 -6.800781 C 4.078125 -5.199219 4.679688 -3.878906 5.480469 -2.878906 C 6.238281 -1.839844 7.320312 -1.121094 8.558594 -0.640625 C 9.800781 -0.199219 11.320312 0 13.078125 0 L 22.078125 0 C 23.839844 0 25.359375 -0.199219 26.597656 -0.640625 C 27.878906 -1.121094 28.917969 -1.839844 29.71875 -2.878906 C 30.519531 -3.878906 31.078125 -5.199219 31.4375 -6.800781 C 31.796875 -8.359375 31.957031 -10.28125 31.957031 -12.519531 L 31.957031 -31.597656 C 31.957031 -32.839844 31.199219 -32.957031 30.839844 -32.957031 Z M 30.839844 -32.957031 "/></g></g></g><g fill="#000000" fill-opacity="1"><g transform="translate(245.879848, 175.052845)"><g><path d="M 30.476562 -23.398438 C 30.476562 -23.359375 30.476562 -23.320312 30.476562 -23.277344 C 30.476562 -23.238281 30.476562 -23.199219 30.476562 -23.160156 Z M 31.238281 -1.71875 L 24.238281 -13.71875 C 26.199219 -13.960938 27.71875 -14.800781 28.71875 -16.160156 C 29.839844 -17.800781 30.4375 -20.160156 30.476562 -23.277344 C 30.4375 -26.398438 29.839844 -28.757812 28.71875 -30.398438 C 27.519531 -32.117188 25.519531 -32.957031 22.796875 -32.957031 L 4.359375 -32.957031 C 4 -32.957031 3.199219 -32.839844 3.199219 -31.558594 L 3.199219 -28.398438 C 3.199219 -27.160156 4 -27.039062 4.359375 -27.039062 L 21.757812 -27.039062 C 22.796875 -27.039062 23.480469 -26.757812 23.878906 -26.160156 C 24.320312 -25.558594 24.519531 -24.597656 24.519531 -23.277344 C 24.519531 -21.957031 24.320312 -21 23.878906 -20.398438 C 23.480469 -19.796875 22.796875 -19.519531 21.757812 -19.519531 L 4.359375 -19.519531 C 4 -19.519531 3.199219 -19.398438 3.199219 -18.160156 L 3.199219 -1.359375 C 3.199219 -0.121094 4 0.0390625 4.359375 0.0390625 L 8 0.0390625 C 8.359375 0.0390625 9.121094 -0.121094 9.121094 -1.359375 L 9.121094 -13.597656 L 17.558594 -13.597656 L 24.796875 -0.761719 C 24.957031 -0.519531 25.078125 -0.320312 25.238281 -0.199219 C 25.4375 -0.0390625 25.71875 0.0390625 26.078125 0.0390625 L 30.476562 0.0390625 C 30.957031 0.0390625 31.316406 -0.28125 31.398438 -0.761719 C 31.4375 -1.160156 31.398438 -1.480469 31.238281 -1.71875 Z M 31.238281 -1.71875 "/></g></g></g><g fill="#000000" fill-opacity="1"><g transform="translate(282.516206, 175.052845)"><g><path d="M 27.238281 -7.160156 L 13.160156 -7.160156 C 12.320312 -7.160156 11.640625 -7.28125 11.078125 -7.441406 C 10.558594 -7.640625 10.199219 -7.917969 9.878906 -8.320312 C 9.558594 -8.757812 9.320312 -9.359375 9.199219 -10.121094 C 9.160156 -10.320312 9.160156 -10.597656 9.121094 -10.800781 C 9.121094 -10.800781 9.160156 -13.679688 9.199219 -13.679688 L 27.078125 -13.679688 C 27.398438 -13.679688 28.199219 -13.839844 28.199219 -15.078125 L 28.199219 -18.238281 C 28.199219 -19.480469 27.398438 -19.597656 27.078125 -19.597656 L 6.441406 -19.558594 C 5.28125 -19.480469 4.28125 -18.878906 3.71875 -17.878906 C 3.519531 -17.558594 3.359375 -17.238281 3.28125 -16.878906 L 3.199219 -11.839844 L 3.199219 -11.640625 C 3.238281 -9.757812 3.441406 -8.160156 3.71875 -6.839844 C 4.078125 -5.238281 4.679688 -3.917969 5.441406 -2.917969 C 6.238281 -1.878906 7.28125 -1.160156 8.558594 -0.71875 C 9.800781 -0.238281 11.277344 -0.0390625 13.039062 -0.0390625 L 27.238281 -0.0390625 C 27.597656 -0.0390625 28.398438 -0.160156 28.398438 -1.398438 L 28.398438 -5.800781 C 28.398438 -7.039062 27.597656 -7.160156 27.238281 -7.160156 Z M 27.277344 -33.039062 L 4.28125 -33.039062 C 3.960938 -33.039062 3.199219 -32.878906 3.199219 -31.597656 L 3.199219 -28.476562 C 3.199219 -27.238281 3.960938 -27.117188 4.28125 -27.117188 L 27.277344 -27.078125 C 27.597656 -27.078125 28.398438 -27.238281 28.398438 -28.476562 L 28.398438 -31.636719 C 28.398438 -32.878906 27.597656 -33.039062 27.277344 -33.039062 Z M 27.277344 -33.039062 "/></g></g></g><g fill="#000000" fill-opacity="1"><g transform="translate(112.00781, 230.552841)"><g><path d="M 30.839844 -32.957031 L 4.359375 -32.957031 C 4 -32.957031 3.199219 -32.839844 3.199219 -31.597656 L 3.199219 -28.476562 C 3.199219 -27.160156 4 -27.039062 4.359375 -27.039062 L 14.640625 -27.039062 L 14.640625 -1.359375 C 14.640625 -0.121094 15.4375 0 15.757812 0 L 19.4375 0 C 19.796875 0 20.558594 -0.121094 20.558594 -1.359375 L 20.558594 -27.039062 L 30.839844 -27.039062 C 31.199219 -27.039062 31.996094 -27.160156 31.996094 -28.476562 L 31.996094 -31.597656 C 31.996094 -32.839844 31.199219 -32.957031 30.839844 -32.957031 Z M 30.839844 -32.957031 "/></g></g></g><g fill="#000000" fill-opacity="1"><g transform="translate(149.204116, 230.552841)"><g><path d="M 24.636719 -29.238281 C 24.558594 -29.4375 24.476562 -29.679688 24.398438 -29.839844 C 23.757812 -31.917969 21.839844 -33.398438 19.640625 -33.398438 C 18.640625 -33.398438 17.679688 -33.117188 16.878906 -32.558594 C 16.640625 -32.4375 16.4375 -32.277344 16.277344 -32.15625 C 15.679688 -31.636719 15.078125 -30.679688 14.519531 -29.238281 L 3.359375 -1.519531 C 3.238281 -1.160156 3.199219 -0.800781 3.28125 -0.558594 C 3.320312 -0.320312 3.519531 0.0390625 4.160156 0.0390625 L 8.558594 0.0390625 C 9.078125 0.0390625 9.480469 -0.28125 9.679688 -0.800781 L 11.960938 -6.519531 L 20.71875 -6.519531 C 21.160156 -6.519531 21.558594 -6.71875 21.757812 -7.078125 C 22 -7.398438 22.039062 -7.839844 21.917969 -8.238281 L 20.480469 -11.800781 C 20.277344 -12.277344 19.839844 -12.597656 19.320312 -12.597656 L 14.359375 -12.597656 L 19.480469 -25.558594 C 19.519531 -25.636719 19.558594 -25.679688 19.558594 -25.679688 L 19.71875 -25.679688 C 19.71875 -25.679688 19.71875 -25.679688 19.757812 -25.597656 L 29.679688 -0.839844 C 29.878906 -0.28125 30.277344 0.0390625 30.839844 0.0390625 L 35.117188 0.0390625 C 35.757812 0.0390625 35.917969 -0.359375 35.996094 -0.558594 C 36.078125 -0.800781 36.039062 -1.160156 35.878906 -1.519531 Z M 24.636719 -29.238281 "/></g></g></g><g fill="#000000" fill-opacity="1"><g transform="translate(190.480011, 230.552841)"><g><path d="M 31.519531 -32.957031 L 27.957031 -32.957031 C 27.597656 -32.957031 26.839844 -32.839844 26.839844 -31.558594 L 26.839844 -7.519531 C 26.839844 -7.480469 26.839844 -7.480469 26.839844 -7.441406 L 26.636719 -7.441406 C 26.597656 -7.441406 26.558594 -7.441406 26.519531 -7.558594 L 13.878906 -30.039062 C 13.558594 -30.636719 13.277344 -31.117188 13 -31.476562 C 12.71875 -31.878906 12.4375 -32.199219 12.160156 -32.398438 C 11.839844 -32.636719 11.480469 -32.796875 11.039062 -32.878906 C 10.640625 -32.917969 10.160156 -32.957031 9.640625 -32.957031 L 6.640625 -32.957031 C 5.480469 -32.957031 4.601562 -32.558594 4.039062 -31.839844 C 3.480469 -31.078125 3.199219 -29.757812 3.199219 -27.796875 L 3.199219 -1.359375 C 3.199219 -0.121094 4 0.0390625 4.359375 0.0390625 L 7.917969 0.0390625 C 8.28125 0.0390625 9.039062 -0.121094 9.039062 -1.359375 L 9.039062 -25.398438 C 9.039062 -25.4375 9.039062 -25.476562 9.039062 -25.476562 L 9.238281 -25.476562 C 9.238281 -25.476562 9.28125 -25.476562 9.359375 -25.359375 L 22.039062 -2.878906 C 22.359375 -2.238281 22.679688 -1.761719 22.957031 -1.398438 C 23.238281 -1 23.519531 -0.71875 23.839844 -0.519531 C 24.160156 -0.28125 24.519531 -0.160156 24.917969 -0.078125 C 25.277344 0 25.71875 0.0390625 26.277344 0.0390625 L 29.199219 0.0390625 C 30.359375 0.0390625 31.238281 -0.359375 31.796875 -1.121094 C 32.359375 -1.839844 32.636719 -3.160156 32.636719 -5.121094 L 32.636719 -31.558594 C 32.636719 -32.839844 31.839844 -32.957031 31.519531 -32.957031 Z M 31.519531 -32.957031 "/></g></g></g><g fill="#000000" fill-opacity="1"><g transform="translate(228.316247, 230.552841)"><g><path d="M 22.359375 -13.71875 C 21.558594 -15.039062 20.757812 -16.117188 19.957031 -16.878906 C 20.199219 -17.199219 20.4375 -17.519531 20.71875 -17.917969 C 21.039062 -18.4375 21.398438 -19.039062 21.796875 -19.71875 L 28.398438 -31.316406 C 28.519531 -31.597656 28.558594 -31.917969 28.519531 -32.277344 C 28.398438 -32.71875 28.078125 -32.957031 27.597656 -32.957031 L 23.636719 -32.957031 C 23.199219 -32.957031 22.917969 -32.878906 22.757812 -32.71875 C 22.597656 -32.597656 22.4375 -32.4375 22.320312 -32.15625 L 16.277344 -21.480469 C 16.039062 -21.078125 15.800781 -20.757812 15.597656 -20.480469 C 15.398438 -20.238281 15.160156 -20.039062 14.960938 -19.917969 C 14.71875 -19.796875 14.4375 -19.71875 14.117188 -19.679688 C 13.800781 -19.640625 13.359375 -19.597656 12.839844 -19.597656 L 9.160156 -19.597656 L 9.160156 -31.558594 C 9.160156 -32.839844 8.359375 -32.957031 8.039062 -32.957031 L 4.359375 -32.957031 C 4.039062 -32.957031 3.199219 -32.839844 3.199219 -31.558594 L 3.199219 -1.359375 C 3.199219 -0.121094 4.039062 0.0390625 4.359375 0.0390625 L 8.039062 0.0390625 C 8.359375 0.0390625 9.160156 -0.121094 9.160156 -1.359375 L 9.160156 -13.679688 L 13.199219 -13.679688 C 14.160156 -13.679688 14.878906 -13.558594 15.359375 -13.277344 C 15.800781 -13.039062 16.238281 -12.519531 16.679688 -11.71875 L 22.917969 -0.761719 C 23.039062 -0.519531 23.199219 -0.320312 23.359375 -0.199219 C 23.519531 -0.0390625 23.796875 0.0390625 24.199219 0.0390625 L 28.519531 0.0390625 C 29.078125 0.0390625 29.398438 -0.28125 29.4375 -0.800781 C 29.476562 -1.199219 29.4375 -1.519531 29.277344 -1.71875 Z M 22.359375 -13.71875 "/></g></g></g></svg>
