
<svg version="1.0" xmlns="http://www.w3.org/2000/svg"
 width="870.000000pt" height="287.000000pt" viewBox="0 0 870.000000 287.000000"
 preserveAspectRatio="xMidYMid meet">

<g transform="translate(0.000000,287.000000) scale(0.100000,-0.100000)"
fill="#000000" stroke="none">
<path d="M1221 2574 c0 -11 3 -14 6 -6 3 7 2 16 -1 19 -3 4 -6 -2 -5 -13z"/>
<path d="M1204 2532 c3 -5 1 -12 -6 -14 -8 -3 -9 -6 -1 -11 6 -4 13 0 17 8 3
8 0 17 -6 21 -6 4 -8 3 -4 -4z"/>
<path d="M2137 2533 c-4 -3 -7 -11 -7 -17 0 -6 5 -5 12 2 6 6 9 14 7 17 -3 3
-9 2 -12 -2z"/>
<path d="M1231 2484 c0 -11 3 -14 6 -6 3 7 2 16 -1 19 -3 4 -6 -2 -5 -13z"/>
<path d="M2116 2487 c3 -10 9 -15 12 -12 3 3 0 11 -7 18 -10 9 -11 8 -5 -6z"/>
<path d="M1185 2481 c4 -8 2 -17 -6 -22 -9 -6 -10 -9 -2 -9 19 0 27 21 13 33
-10 9 -11 9 -5 -2z"/>
<path d="M2105 2450 c3 -5 8 -10 11 -10 2 0 4 5 4 10 0 6 -5 10 -11 10 -5 0
-7 -4 -4 -10z"/>
<path d="M2065 2330 c3 -5 8 -10 11 -10 2 0 4 5 4 10 0 6 -5 10 -11 10 -5 0
-7 -4 -4 -10z"/>
<path d="M1141 2304 c0 -11 3 -14 6 -6 3 7 2 16 -1 19 -3 4 -6 -2 -5 -13z"/>
<path d="M1290 2280 c6 -11 13 -20 16 -20 2 0 0 9 -6 20 -6 11 -13 20 -16 20
-2 0 0 -9 6 -20z"/>
<path d="M2035 2262 c-10 -7 -18 -32 -10 -32 2 0 9 9 15 20 12 22 11 24 -5 12z"/>
<path d="M1323 2225 c9 -16 30 -46 47 -65 29 -32 29 -31 -6 20 -47 68 -61 84
-41 45z"/>
<path d="M2002 2225 c4 -4 3 -14 -3 -22 -7 -8 -8 -13 -1 -13 15 0 23 28 9 36
-7 4 -9 4 -5 -1z"/>
<path d="M1973 2183 c8 -13 -107 -126 -118 -116 -4 5 -5 3 -2 -3 7 -11 -19
-29 -36 -25 -5 1 -6 -3 -2 -9 8 -13 16 -8 78 43 62 53 101 103 85 113 -6 4 -8
3 -5 -3z"/>
<path d="M1142 2130 c0 -14 2 -19 5 -12 2 6 2 18 0 25 -3 6 -5 1 -5 -13z"/>
<path d="M1450 2080 c56 -51 82 -67 74 -45 -4 9 -9 14 -12 11 -2 -3 -28 13
-56 35 l-51 41 45 -42z"/>
<path d="M1157 2063 c-4 -3 -7 -11 -7 -17 0 -6 5 -5 12 2 6 6 9 14 7 17 -3 3
-9 2 -12 -2z"/>
<path d="M1541 2024 c-1 -15 28 -39 36 -30 3 3 1 6 -6 6 -7 0 -9 5 -5 12 4 6
3 8 -4 4 -5 -3 -13 0 -15 6 -4 8 -6 9 -6 2z"/>
<path d="M1780 2008 c0 -5 -6 -6 -12 -2 -10 5 -10 4 0 -7 10 -11 15 -11 28 2
13 14 13 16 -1 16 -8 0 -15 -4 -15 -9z"/>
<path d="M1174 1968 c-4 -6 -3 -8 4 -4 6 3 15 -1 20 -10 5 -9 12 -12 15 -7 3
5 -3 14 -13 21 -14 9 -21 9 -26 0z"/>
<path d="M738 1943 c7 -3 16 -2 19 1 4 3 -2 6 -13 5 -11 0 -14 -3 -6 -6z"/>
<path d="M1230 1939 c0 -5 5 -7 10 -4 6 3 10 1 10 -5 0 -6 5 -8 11 -4 8 4 7 9
-2 15 -19 12 -29 11 -29 -2z"/>
<path d="M2595 1940 c3 -5 8 -10 11 -10 2 0 4 5 4 10 0 6 -5 10 -11 10 -5 0
-7 -4 -4 -10z"/>
<path d="M1290 1909 c0 -5 5 -7 10 -4 6 3 10 1 10 -4 0 -6 3 -10 8 -10 20 3
32 -2 26 -13 -4 -7 -3 -8 4 -4 17 10 15 14 -18 31 -34 18 -40 18 -40 4z"/>
<path d="M590 1900 c0 -5 5 -10 11 -10 5 0 7 5 4 10 -3 6 -8 10 -11 10 -2 0
-4 -4 -4 -10z"/>
<path d="M1166 1902 c-3 -6 7 -15 24 -20 21 -8 32 -8 36 0 4 7 2 8 -4 4 -7 -4
-12 -2 -12 4 0 6 -5 8 -11 4 -6 -3 -15 -1 -19 6 -5 8 -10 8 -14 2z"/>
<path d="M2201 1901 c-8 -5 -9 -11 -3 -15 5 -3 12 1 16 9 6 17 6 18 -13 6z"/>
<path d="M1366 1871 c-4 -5 -2 -12 4 -16 5 -3 10 -3 10 2 0 4 4 2 9 -6 8 -13
41 -25 41 -16 0 11 -60 44 -64 36z"/>
<path d="M1281 1848 c-1 -20 14 -24 25 -6 4 6 3 8 -4 4 -5 -3 -13 0 -15 6 -3
8 -6 6 -6 -4z"/>
<path d="M2105 1849 c-4 -6 -5 -12 -2 -15 2 -3 7 2 10 11 7 17 1 20 -8 4z"/>
<path d="M2606 1841 c-4 -5 3 -7 14 -4 23 6 26 13 6 13 -8 0 -17 -4 -20 -9z"/>
<path d="M1310 1826 c0 -3 9 -10 20 -16 11 -6 20 -8 20 -6 0 3 -9 10 -20 16
-11 6 -20 8 -20 6z"/>
<path d="M1436 1808 c3 -5 9 -6 13 -4 11 7 133 -119 124 -129 -4 -4 -2 -5 5
-1 11 6 8 14 -10 35 -47 54 -108 108 -122 108 -9 0 -13 -4 -10 -9z"/>
<path d="M2080 1800 c-8 -15 -8 -18 3 -14 8 3 14 11 14 19 0 20 -4 19 -17 -5z"/>
<path d="M810 1807 c0 -3 20 -17 45 -31 24 -15 50 -36 56 -47 6 -11 13 -18 17
-15 9 10 102 -86 95 -97 -3 -6 -1 -7 6 -3 14 9 -22 53 -89 110 -46 39 -130 92
-130 83z"/>
<path d="M2154 1802 c4 -7 2 -12 -5 -12 -7 0 -9 -3 -6 -6 3 -4 2 -15 -4 -25
-5 -11 -7 -19 -5 -19 3 0 12 13 21 29 11 22 12 32 3 37 -7 4 -8 3 -4 -4z"/>
<path d="M2500 1789 c-17 -13 -18 -17 -5 -10 33 17 51 31 40 31 -5 0 -21 -10
-35 -21z"/>
<path d="M1374 1782 c23 -26 26 -27 26 -5 0 9 -3 13 -7 10 -3 -4 -13 -1 -22 5
-10 8 -9 4 3 -10z"/>
<path d="M2050 1750 c-8 -15 -8 -18 3 -14 8 3 14 11 14 19 0 20 -4 19 -17 -5z"/>
<path d="M1465 1700 c33 -33 62 -60 64 -60 3 0 -21 27 -54 60 -33 33 -62 60
-64 60 -3 0 21 -27 54 -60z"/>
<path d="M2417 1728 c-31 -31 -31 -32 -2 -8 16 14 34 28 40 32 5 5 6 8 2 8 -4
0 -22 -15 -40 -32z"/>
<path d="M2107 1734 c-3 -3 -3 -13 0 -22 5 -11 3 -13 -7 -7 -8 5 -11 4 -7 -2
4 -6 -5 -18 -19 -28 -14 -9 -23 -19 -20 -22 3 -4 1 -13 -5 -22 -6 -9 5 2 26
24 44 48 58 72 46 79 -4 3 -11 3 -14 0z"/>
<path d="M2002 1689 c-12 -15 -18 -30 -13 -33 5 -3 14 1 21 9 7 8 9 15 5 15
-4 0 -2 7 5 15 7 9 11 17 9 19 -2 2 -14 -9 -27 -25z"/>
<path d="M2350 1675 c-11 -13 -10 -14 4 -9 9 3 16 10 16 15 0 13 -6 11 -20 -6z"/>
<path d="M1598 1659 c7 -9 8 -20 4 -24 -4 -5 -1 -5 6 -1 11 7 17 -6 12 -29 -1
-5 4 -4 11 3 11 10 8 17 -16 40 -16 15 -23 20 -17 11z"/>
<path d="M1949 1623 c-13 -17 -13 -17 6 -3 11 8 22 16 24 17 2 2 0 3 -6 3 -6
0 -17 -8 -24 -17z"/>
<path d="M2301 1618 c-14 -23 -14 -23 8 -4 22 20 25 26 13 26 -4 0 -13 -10
-21 -22z"/>
<path d="M1550 1602 c27 -37 27 -36 27 -19 0 7 -11 21 -25 31 l-25 19 23 -31z"/>
<path d="M1990 1585 c-19 -19 -30 -35 -24 -35 11 -1 -27 -24 -40 -25 -5 0 -10
-8 -12 -18 -2 -13 10 -7 44 22 63 52 85 78 74 85 -5 3 -24 -10 -42 -29z m40
22 c0 -2 -10 -12 -22 -23 l-23 -19 19 23 c18 21 26 27 26 19z"/>
<path d="M1058 1586 c12 -15 20 -32 17 -36 -3 -4 2 -11 10 -14 13 -5 14 -2 1
22 -8 16 -23 35 -33 43 -12 10 -11 6 5 -15z"/>
<path d="M1887 1576 c-28 -24 -35 -36 -26 -41 7 -5 10 -4 6 2 -6 10 15 25 38
27 6 1 10 8 10 16 1 8 7 14 14 12 7 -1 10 2 6 8 -8 13 -4 15 -48 -24z"/>
<path d="M2260 1560 c-6 -11 -8 -20 -6 -20 3 0 10 9 16 20 6 11 8 20 6 20 -3
0 -10 -9 -16 -20z"/>
<path d="M1664 1538 c-4 -6 -3 -8 3 -5 13 8 36 -40 27 -56 -5 -9 -4 -9 5 -1
10 9 9 18 -3 43 -18 34 -22 36 -32 19z"/>
<path d="M1600 1521 c0 -6 4 -13 10 -16 6 -3 7 1 4 9 -7 18 -14 21 -14 7z"/>
<path d="M1805 1517 c-14 -11 -15 -16 -5 -22 9 -5 11 -4 6 3 -7 11 6 17 27 13
5 -1 6 3 2 9 -8 13 -8 13 -30 -3z"/>
<path d="M1870 1480 c-6 -11 -15 -18 -19 -15 -5 3 -11 -2 -15 -10 -8 -21 4
-18 38 9 17 14 24 26 18 30 -6 4 -16 -3 -22 -14z"/>
<path d="M1745 1480 c-3 -6 1 -7 9 -4 18 7 21 14 7 14 -6 0 -13 -4 -16 -10z"/>
<path d="M2215 1479 c-4 -6 -5 -12 -2 -15 2 -3 7 2 10 11 7 17 1 20 -8 4z"/>
<path d="M1705 1460 c-3 -6 1 -7 9 -4 18 7 21 14 7 14 -6 0 -13 -4 -16 -10z"/>
<path d="M1810 1441 c0 -7 -5 -9 -12 -5 -7 5 -8 3 -3 -5 5 -9 10 -10 18 -2 6
6 8 14 4 18 -4 3 -7 1 -7 -6z"/>
<path d="M1137 1434 c-3 -3 -3 -12 0 -20 3 -8 0 -14 -7 -14 -6 0 -9 -4 -6 -9
4 -5 0 -12 -6 -14 -9 -4 -10 -6 -1 -6 15 -1 25 15 29 46 2 24 1 27 -9 17z"/>
<path d="M1524 1414 c-18 -15 -18 -15 2 -5 12 6 25 7 29 3 5 -4 5 -1 1 6 -9
15 -8 15 -32 -4z"/>
<path d="M1750 1410 c0 -5 5 -10 11 -10 5 0 7 5 4 10 -3 6 -8 10 -11 10 -2 0
-4 -4 -4 -10z"/>
<path d="M1486 1392 c-3 -5 1 -9 9 -9 8 0 12 4 9 9 -3 4 -7 8 -9 8 -2 0 -6 -4
-9 -8z"/>
<path d="M1600 1380 c0 -5 5 -10 11 -10 5 0 7 5 4 10 -3 6 -8 10 -11 10 -2 0
-4 -4 -4 -10z"/>
<path d="M2210 1385 c0 -5 5 -17 10 -25 5 -8 10 -10 10 -5 0 6 -5 17 -10 25
-5 8 -10 11 -10 5z"/>
<path d="M1428 1349 c-18 -18 -26 -27 -17 -20 9 6 18 8 22 5 3 -3 10 4 17 15
6 12 16 18 22 15 7 -4 8 -3 4 4 -10 17 -12 16 -48 -19z"/>
<path d="M1560 1358 c0 -5 -5 -6 -12 -2 -7 4 -8 3 -4 -4 6 -11 -5 -16 -20 -9
-3 1 -10 -6 -15 -16 -6 -9 -15 -14 -21 -11 -6 4 -8 3 -5 -3 6 -9 -5 -18 -33
-28 -12 -4 -142 -135 -134 -135 5 0 3 -4 -5 -9 -15 -10 -24 -41 -12 -41 9 0
46 63 43 73 -1 4 3 7 9 7 6 0 28 17 48 38 44 44 101 89 154 121 41 25 43 28
22 28 -8 0 -15 -4 -15 -9z"/>
<path d="M1716 1351 c-4 -6 -2 -11 4 -11 6 0 8 -6 4 -12 -6 -10 -4 -10 7 0 9
9 10 15 2 23 -8 8 -13 8 -17 0z"/>
<path d="M2240 1321 c0 -6 4 -13 10 -16 6 -3 7 1 4 9 -7 18 -14 21 -14 7z"/>
<path d="M1347 1282 c-21 -21 -34 -41 -31 -45 4 -4 1 -7 -7 -7 -14 0 -37 -28
-35 -43 1 -5 -7 -13 -16 -18 -10 -5 -22 -19 -28 -29 -8 -16 -8 -18 5 -14 8 3
13 10 10 14 -3 4 7 15 20 24 14 9 23 21 20 26 -3 5 8 18 25 30 16 12 29 26 27
33 -1 7 4 11 11 10 6 -2 11 2 10 9 -2 7 3 12 11 13 11 0 28 35 17 35 -1 0 -19
-17 -39 -38z"/>
<path d="M1673 1300 c-1 -10 4 -23 11 -29 9 -8 13 -7 13 4 0 8 -5 11 -10 8 -6
-4 -8 0 -4 10 3 9 3 18 -1 21 -4 3 -8 -4 -9 -14z"/>
<path d="M1753 1291 c1 -11 7 -23 15 -26 7 -3 10 -10 6 -17 -4 -7 -4 -10 1 -6
4 4 14 0 22 -10 19 -22 6 3 -23 46 -18 26 -22 29 -21 13z"/>
<path d="M2260 1286 c0 -2 8 -10 18 -17 15 -13 16 -12 3 4 -13 16 -21 21 -21
13z"/>
<path d="M1054 1255 c-4 -8 -11 -12 -18 -8 -6 3 -8 3 -4 -2 4 -4 3 -14 -3 -22
-6 -7 -7 -13 -2 -13 5 0 17 14 26 30 10 17 15 30 12 30 -3 0 -8 -7 -11 -15z"/>
<path d="M2308 1223 c11 -16 30 -37 43 -48 12 -11 5 1 -16 28 -43 52 -57 63
-27 20z"/>
<path d="M1820 1206 c0 -14 123 -140 140 -143 8 -1 -11 20 -42 48 -31 27 -66
62 -77 77 -11 15 -21 23 -21 18z"/>
<path d="M987 1186 c-9 -7 -17 -19 -17 -27 0 -9 8 -6 22 9 25 24 22 37 -5 18z"/>
<path d="M1730 1196 c0 -2 8 -10 18 -17 15 -13 16 -12 3 4 -13 16 -21 21 -21
13z"/>
<path d="M940 1135 c-7 -8 -16 -13 -19 -10 -4 2 -8 -3 -8 -11 0 -11 6 -9 24 8
13 12 23 23 23 25 0 7 -8 2 -20 -12z"/>
<path d="M1849 1071 c82 -79 106 -97 116 -81 4 6 3 10 -2 9 -21 -4 -34 2 -27
13 4 6 3 8 -3 5 -6 -4 -44 23 -84 59 l-74 66 74 -71z"/>
<path d="M2395 1130 c3 -5 8 -10 11 -10 2 0 4 5 4 10 0 6 -5 10 -11 10 -5 0
-7 -4 -4 -10z"/>
<path d="M2420 1110 c0 -5 5 -10 11 -10 5 0 7 5 4 10 -3 6 -8 10 -11 10 -2 0
-4 -4 -4 -10z"/>
<path d="M866 1083 c-3 -8 -11 -11 -17 -7 -8 4 -9 3 -5 -4 5 -9 13 -9 26 -2
25 13 33 27 15 27 -8 0 -17 -7 -19 -14z"/>
<path d="M2450 1092 c0 -5 11 -14 25 -20 14 -6 25 -10 25 -8 0 2 -11 11 -25
20 -14 9 -25 13 -25 8z"/>
<path d="M1254 1062 c3 -5 1 -12 -6 -14 -8 -3 -9 -6 -1 -11 6 -4 13 0 17 8 3
8 0 17 -6 21 -6 4 -8 3 -4 -4z"/>
<path d="M1177 1053 c-10 -9 -9 -23 1 -23 5 0 9 7 9 15 0 17 -1 18 -10 8z"/>
<path d="M1977 1054 c-11 -11 3 -23 19 -17 8 3 14 2 12 -3 -3 -10 11 -17 15
-8 3 10 -39 35 -46 28z"/>
<path d="M2524 1046 c11 -9 24 -16 30 -16 12 0 7 5 -24 19 -24 11 -24 11 -6
-3z"/>
<path d="M740 1020 c0 -5 5 -10 11 -10 5 0 7 5 4 10 -3 6 -8 10 -11 10 -2 0
-4 -4 -4 -10z"/>
<path d="M1224 1002 c3 -5 1 -12 -6 -14 -8 -3 -9 -6 -1 -11 6 -4 13 0 17 8 3
8 0 17 -6 21 -6 4 -8 3 -4 -4z"/>
<path d="M2050 1000 c0 -6 4 -9 9 -6 5 4 12 1 14 -4 3 -6 4 -5 3 2 -3 15 -26
23 -26 8z"/>
<path d="M2094 978 c-4 -6 -3 -8 4 -4 5 3 12 1 14 -6 3 -8 6 -9 11 -1 4 6 0
13 -8 17 -8 3 -17 0 -21 -6z"/>
<path d="M1970 975 c0 -2 6 -8 13 -14 10 -8 14 -7 14 2 0 8 -6 14 -14 14 -7 0
-13 -1 -13 -2z"/>
<path d="M1205 958 c4 -11 2 -18 -5 -18 -6 0 -8 -5 -4 -11 5 -8 10 -6 16 6 7
11 6 21 -2 28 -8 9 -10 8 -5 -5z"/>
<path d="M2020 940 c18 -12 30 -13 30 -2 0 4 -10 9 -22 9 -18 2 -20 0 -8 -7z"/>
<path d="M2080 921 c0 -10 19 -25 25 -20 1 2 -3 10 -11 17 -8 7 -14 8 -14 3z"/>
<path d="M1185 900 c3 -5 8 -10 11 -10 2 0 4 5 4 10 0 6 -5 10 -11 10 -5 0 -7
-4 -4 -10z"/>
<path d="M1640 890 c-9 -6 -10 -10 -3 -10 6 0 15 5 18 10 8 12 4 12 -15 0z"/>
<path d="M1690 890 c8 -5 20 -10 25 -10 6 0 3 5 -5 10 -8 5 -19 10 -25 10 -5
0 -3 -5 5 -10z"/>
<path d="M2150 889 c0 -5 5 -7 10 -4 6 3 10 8 10 11 0 2 -4 4 -10 4 -5 0 -10
-5 -10 -11z"/>
<path d="M1600 870 c-9 -6 -10 -10 -3 -10 6 0 15 5 18 10 8 12 4 12 -15 0z"/>
<path d="M1737 869 c7 -7 15 -10 18 -7 3 3 -2 9 -12 12 -14 6 -15 5 -6 -5z"/>
<path d="M1787 839 c7 -7 15 -10 18 -7 3 3 -2 9 -12 12 -14 6 -15 5 -6 -5z"/>
<path d="M1509 813 c-13 -16 -12 -17 4 -4 16 13 21 21 13 21 -2 0 -10 -8 -17
-17z"/>
<path d="M1835 810 c10 -11 20 -20 23 -20 3 0 -3 9 -13 20 -10 11 -20 20 -23
20 -3 0 3 -9 13 -20z"/>
<path d="M1441 764 c-23 -20 -39 -39 -36 -42 3 -3 12 4 21 16 8 12 18 20 22
18 4 -2 15 7 25 20 25 33 18 30 -32 -12z"/>
<path d="M1920 735 c30 -30 57 -55 59 -55 3 0 -19 25 -49 55 -30 30 -57 55
-59 55 -3 0 19 -25 49 -55z"/>
<path d="M1361 677 l-25 -32 32 29 c33 31 37 36 25 35 -5 0 -19 -14 -32 -32z"/>
<path d="M1980 666 c0 -2 8 -10 18 -17 15 -13 16 -12 3 4 -13 16 -21 21 -21
13z"/>
<path d="M2055 550 c9 -16 18 -30 21 -30 2 0 -2 14 -11 30 -9 17 -18 30 -21
30 -2 0 2 -13 11 -30z"/>
<path d="M1141 554 c0 -11 3 -14 6 -6 3 7 2 16 -1 19 -3 4 -6 -2 -5 -13z"/>
<path d="M1187 379 c4 -13 8 -18 11 -10 2 7 -1 18 -6 23 -8 8 -9 4 -5 -13z"/>
<path d="M2151 384 c0 -11 3 -14 6 -6 3 7 2 16 -1 19 -3 4 -6 -2 -5 -13z"/>
</g>
</svg>
